<mxfile host="65bd71144e">
    <diagram name="Page-1" id="NpbVZTM5QQTxwl8F8GsM">
        <mxGraphModel dx="1130" dy="787" grid="1" gridSize="10" guides="1" tooltips="1" connect="1" arrows="1" fold="1" page="1" pageScale="1" pageWidth="850" pageHeight="1100" math="0" shadow="0">
            <root>
                <mxCell id="0"/>
                <mxCell id="1" parent="0"/>
                <mxCell id="TC6UTmdnPqjUsywXjG_d-3" value="" style="edgeStyle=orthogonalEdgeStyle;rounded=0;orthogonalLoop=1;jettySize=auto;html=1;" parent="1" source="TC6UTmdnPqjUsywXjG_d-1" target="TC6UTmdnPqjUsywXjG_d-2" edge="1">
                    <mxGeometry relative="1" as="geometry"/>
                </mxCell>
                <mxCell id="TC6UTmdnPqjUsywXjG_d-1" value="Actor" style="shape=umlActor;verticalLabelPosition=bottom;verticalAlign=top;html=1;outlineConnect=0;" parent="1" vertex="1">
                    <mxGeometry x="410" y="60" width="30" height="60" as="geometry"/>
                </mxCell>
                <mxCell id="TC6UTmdnPqjUsywXjG_d-8" style="edgeStyle=orthogonalEdgeStyle;rounded=0;orthogonalLoop=1;jettySize=auto;html=1;entryX=0.5;entryY=0;entryDx=0;entryDy=0;" parent="1" source="TC6UTmdnPqjUsywXjG_d-2" target="TC6UTmdnPqjUsywXjG_d-6" edge="1">
                    <mxGeometry relative="1" as="geometry"/>
                </mxCell>
                <mxCell id="TC6UTmdnPqjUsywXjG_d-2" value="Property page" style="rounded=1;whiteSpace=wrap;html=1;" parent="1" vertex="1">
                    <mxGeometry x="365" y="170" width="120" height="60" as="geometry"/>
                </mxCell>
                <mxCell id="TC6UTmdnPqjUsywXjG_d-11" style="edgeStyle=orthogonalEdgeStyle;rounded=0;orthogonalLoop=1;jettySize=auto;html=1;" parent="1" source="TC6UTmdnPqjUsywXjG_d-6" target="TC6UTmdnPqjUsywXjG_d-10" edge="1">
                    <mxGeometry relative="1" as="geometry"/>
                </mxCell>
                <mxCell id="TC6UTmdnPqjUsywXjG_d-13" style="edgeStyle=orthogonalEdgeStyle;rounded=0;orthogonalLoop=1;jettySize=auto;html=1;" parent="1" source="TC6UTmdnPqjUsywXjG_d-6" target="TC6UTmdnPqjUsywXjG_d-12" edge="1">
                    <mxGeometry relative="1" as="geometry"/>
                </mxCell>
                <mxCell id="TC6UTmdnPqjUsywXjG_d-6" value="User clicks search bar." style="rounded=1;whiteSpace=wrap;html=1;" parent="1" vertex="1">
                    <mxGeometry x="550" y="250" width="120" height="60" as="geometry"/>
                </mxCell>
                <mxCell id="TC6UTmdnPqjUsywXjG_d-16" style="edgeStyle=orthogonalEdgeStyle;rounded=0;orthogonalLoop=1;jettySize=auto;html=1;entryX=-0.017;entryY=0.375;entryDx=0;entryDy=0;entryPerimeter=0;exitX=0.5;exitY=1;exitDx=0;exitDy=0;" parent="1" source="TC6UTmdnPqjUsywXjG_d-10" edge="1">
                    <mxGeometry relative="1" as="geometry">
                        <mxPoint x="557.96" y="460" as="targetPoint"/>
                        <Array as="points">
                            <mxPoint x="460" y="460"/>
                        </Array>
                    </mxGeometry>
                </mxCell>
                <mxCell id="TC6UTmdnPqjUsywXjG_d-10" value="User enters listing number" style="rounded=1;whiteSpace=wrap;html=1;" parent="1" vertex="1">
                    <mxGeometry x="400" y="340" width="120" height="60" as="geometry"/>
                </mxCell>
                <mxCell id="TC6UTmdnPqjUsywXjG_d-12" value="User enters client property requirements" style="rounded=1;whiteSpace=wrap;html=1;" parent="1" vertex="1">
                    <mxGeometry x="720" y="340" width="120" height="60" as="geometry"/>
                </mxCell>
                <mxCell id="TC6UTmdnPqjUsywXjG_d-19" value="" style="edgeStyle=orthogonalEdgeStyle;rounded=0;orthogonalLoop=1;jettySize=auto;html=1;" parent="1" target="TC6UTmdnPqjUsywXjG_d-18" edge="1">
                    <mxGeometry relative="1" as="geometry">
                        <Array as="points">
                            <mxPoint x="620" y="490"/>
                            <mxPoint x="620" y="490"/>
                        </Array>
                        <mxPoint x="620" y="510" as="sourcePoint"/>
                    </mxGeometry>
                </mxCell>
                <mxCell id="TC6UTmdnPqjUsywXjG_d-17" style="edgeStyle=orthogonalEdgeStyle;rounded=0;orthogonalLoop=1;jettySize=auto;html=1;entryX=1;entryY=0.5;entryDx=0;entryDy=0;exitX=0.5;exitY=1;exitDx=0;exitDy=0;" parent="1" source="TC6UTmdnPqjUsywXjG_d-12" target="9" edge="1">
                    <mxGeometry relative="1" as="geometry">
                        <mxPoint x="679.04" y="459.03999999999996" as="targetPoint"/>
                    </mxGeometry>
                </mxCell>
                <mxCell id="5" value="" style="edgeStyle=none;html=1;" edge="1" parent="1" source="TC6UTmdnPqjUsywXjG_d-18" target="4">
                    <mxGeometry relative="1" as="geometry"/>
                </mxCell>
                <mxCell id="TC6UTmdnPqjUsywXjG_d-18" value="Matching property or properties returned" style="rounded=1;whiteSpace=wrap;html=1;" parent="1" vertex="1">
                    <mxGeometry x="560" y="550" width="120" height="60" as="geometry"/>
                </mxCell>
                <mxCell id="4" value="See Property Select Flow (after matching property is returned)" style="ellipse;whiteSpace=wrap;html=1;" vertex="1" parent="1">
                    <mxGeometry x="560" y="650" width="120" height="80" as="geometry"/>
                </mxCell>
                <mxCell id="9" value="Req sent to api for matching data" style="rounded=1;whiteSpace=wrap;html=1;" vertex="1" parent="1">
                    <mxGeometry x="560" y="430" width="120" height="60" as="geometry"/>
                </mxCell>
            </root>
        </mxGraphModel>
    </diagram>
</mxfile>